<?xml version="1.0"?>
<svg width="162" height="162" xmlns="http://www.w3.org/2000/svg" xmlns:svg="http://www.w3.org/2000/svg">
 <g class="layer">
  <title>Layer 1</title>
  <g fill="#d4974e" fill-rule="evenodd" font-size="9pt" id="svgGroup" stroke="#000" stroke-linecap="round" stroke-width="0">
   <path d="m85.2,119.18l-15.58,0a20.73,20.73 0 0 1 -1.89,-0.08q-1.91,-0.18 -3.04,-0.75a3.17,3.17 0 0 1 -1.07,-0.83q-0.54,-0.64 -0.54,-1.47a8.6,8.6 0 0 1 0.06,-1.07q0.16,-1.26 0.72,-1.96a7.43,7.43 0 0 0 1.42,0.32a9.9,9.9 0 0 0 1.24,0.07a2.87,2.87 0 0 0 1,-0.16q0.77,-0.28 1.25,-1.06q0.75,-1.22 0.71,-4.53a25.64,25.64 0 0 0 0,-0.01l0,-31.93a19.07,19.07 0 0 0 -0.09,-1.84q-0.29,-3 -1.62,-3.87q-0.69,-0.44 -1.81,-0.44a6,6 0 0 0 -0.69,0.03q-0.34,0.04 -0.62,0.12a2.55,2.55 0 0 0 -0.47,0.19q-0.61,0.32 -1.02,0.46a4.04,4.04 0 0 1 -0.06,0.03a1.28,1.28 0 0 1 -0.16,0.04q-0.28,0.06 -0.49,-0.04a0.67,0.67 0 0 1 -0.05,-0.03a1.87,1.87 0 0 1 -0.27,-0.19q-0.12,-0.1 -0.24,-0.23a3.44,3.44 0 0 1 -0.08,-0.09q-0.67,-0.72 -0.73,-1.5a1.98,1.98 0 0 1 0,-0.14a2.74,2.74 0 0 1 0.15,-0.87q0.11,-0.34 0.32,-0.7a5.18,5.18 0 0 1 0.14,-0.23a7.09,7.09 0 0 1 0.49,-0.68q0.58,-0.69 1.49,-1.52q1.36,-1.25 3.12,-2.27a17.82,17.82 0 0 1 3.83,-1.69a14.17,14.17 0 0 1 4.08,-0.61q4,0 5.06,4.67a13.09,13.09 0 0 1 0.16,0.85q0.3,1.66 0.4,3.42a47.72,47.72 0 0 1 8.93,-5.66a40.31,40.31 0 0 1 6.4,-2.45a21.96,21.96 0 0 1 3.76,-0.73a18.77,18.77 0 0 1 1.9,-0.1a22.28,22.28 0 0 1 5.43,0.61q6.99,1.76 9.27,8.57a52.22,52.22 0 0 1 7.68,-5.11a40.09,40.09 0 0 1 7.8,-3.24a22.45,22.45 0 0 1 6.05,-0.83a21.15,21.15 0 0 1 5.93,0.83a12.74,12.74 0 0 1 3.62,1.68a11.69,11.69 0 0 1 1.29,1.01a12.53,12.53 0 0 1 3.57,5.63q0.92,2.86 0.92,6.58l0,32.76q0,4 2.74,4.98q0.67,0.25 1.56,0.43a15.23,15.23 0 0 0 0.29,0.06a19.67,19.67 0 0 1 1.03,0.21a15.19,15.19 0 0 1 0.93,0.25a7.63,7.63 0 0 1 0.51,0.18q0.52,0.2 0.85,0.43q0.74,0.57 0.82,1.76a4.42,4.42 0 0 1 0.02,0.29q0,1.71 -0.79,2.69a5.87,5.87 0 0 0 -0.62,-0.12q-0.94,-0.12 -2.5,-0.12l-15.58,0a20.73,20.73 0 0 1 -1.89,-0.08q-1.91,-0.18 -3.04,-0.75a3.17,3.17 0 0 1 -1.07,-0.83q-0.54,-0.64 -0.54,-1.47a8.6,8.6 0 0 1 0.06,-1.07q0.16,-1.26 0.72,-1.96a7.59,7.59 0 0 0 1.64,0.35a9.42,9.42 0 0 0 0.95,0.04a3.37,3.37 0 0 0 0.89,-0.11a2.41,2.41 0 0 0 1.28,-0.84q0.76,-0.95 0.86,-3.54l0,-30.08a21.2,21.2 0 0 0 -0.21,-3.07q-0.54,-3.66 -2.5,-5.2a5.16,5.16 0 0 0 -2.23,-1q-1.51,-0.3 -3.58,-0.3a19.38,19.38 0 0 0 -2.45,0.17a25.22,25.22 0 0 0 -2.05,0.35a28.1,28.1 0 0 0 -4.61,1.39a29.25,29.25 0 0 0 -5.11,2.64a25.18,25.18 0 0 0 -2.31,1.7l0,32.62a9.15,9.15 0 0 0 0.15,1.73q0.49,2.54 2.58,3.25q0.67,0.25 1.56,0.43a15.23,15.23 0 0 0 0.3,0.06q1.07,0.2 1.93,0.46a7.36,7.36 0 0 1 0.54,0.2q0.26,0.1 0.48,0.22a3.19,3.19 0 0 1 0.32,0.19q0.74,0.57 0.82,1.76a4.42,4.42 0 0 1 0.01,0.29q0,1.76 -0.73,2.69a5.87,5.87 0 0 0 -0.63,-0.12q-0.94,-0.12 -2.5,-0.12l-15.57,0a20.73,20.73 0 0 1 -1.89,-0.08q-1.92,-0.18 -3.05,-0.75a3.17,3.17 0 0 1 -1.07,-0.83q-0.54,-0.64 -0.54,-1.47a9.58,9.58 0 0 1 0.05,-1.03q0.15,-1.31 0.68,-2a8.3,8.3 0 0 0 1.99,0.37a9.79,9.79 0 0 0 0.65,0.02a3.12,3.12 0 0 0 0.93,-0.13a2.4,2.4 0 0 0 1.24,-0.89q0.61,-0.83 0.79,-2.76a17.28,17.28 0 0 0 0.07,-1l0,-29.79a21.2,21.2 0 0 0 -0.21,-3.07q-0.53,-3.66 -2.5,-5.2a5.16,5.16 0 0 0 -2.22,-1q-1.18,-0.23 -2.74,-0.28a28.51,28.51 0 0 0 -0.93,-0.02a18.29,18.29 0 0 0 -2.39,0.17a24.48,24.48 0 0 0 -2.29,0.42q-2.54,0.59 -4.84,1.56a28.86,28.86 0 0 0 -4.9,2.57a24.25,24.25 0 0 0 -2.67,2.02l0,32.13a8.75,8.75 0 0 0 0.17,1.76q0.2,0.97 0.64,1.67a3.71,3.71 0 0 0 1.98,1.55q0.57,0.23 1.34,0.4a13.73,13.73 0 0 0 0.46,0.09a19.67,19.67 0 0 1 1.03,0.21a15.19,15.19 0 0 1 0.93,0.25a7.63,7.63 0 0 1 0.51,0.18q0.52,0.2 0.86,0.43q0.73,0.57 0.81,1.76a4.42,4.42 0 0 1 0.02,0.29q0,1.71 -0.79,2.69a5.87,5.87 0 0 0 -0.62,-0.12q-0.94,-0.12 -2.5,-0.12zm-57.86,-11.14l4.2,0a51.6,51.6 0 0 1 7.07,0.45q7.9,1.1 11.94,4.89a12.73,12.73 0 0 1 1.93,2.28a11.12,11.12 0 0 1 1.61,4.08a15.27,15.27 0 0 1 0.25,2.83a20.59,20.59 0 0 1 -0.3,3.6a15.3,15.3 0 0 1 -1.07,3.55a18.62,18.62 0 0 1 -3.66,5.45a23.31,23.31 0 0 1 -5.3,4.06a25.93,25.93 0 0 1 -0.02,0.01a33.96,33.96 0 0 1 -6.4,2.79a45.68,45.68 0 0 1 -6.18,1.61a33.89,33.89 0 0 1 -6.12,0.58a61.09,61.09 0 0 1 -4.71,-0.17q-2.87,-0.22 -5.28,-0.73a28.25,28.25 0 0 1 -4.68,-1.4a23.22,23.22 0 0 1 -2.91,-1.41a16,16 0 0 1 -4.07,-3.26q-3.11,-3.54 -3.11,-8.65a13.04,13.04 0 0 1 2.77,-7.97q1.51,-2.01 3.82,-3.85a30.78,30.78 0 0 1 4.25,-2.78a7.16,7.16 0 0 1 -2.61,-5.23a9.88,9.88 0 0 1 -0.03,-0.68a10.65,10.65 0 0 1 3.25,-7.67a16.84,16.84 0 0 1 2.52,-2.09a19.34,19.34 0 0 1 -6.19,-3.71a17.47,17.47 0 0 1 -4.9,-7.82a18.97,18.97 0 0 1 -0.69,-3.47a24.44,24.44 0 0 1 -0.14,-2.63a19.24,19.24 0 0 1 0.74,-5.38a17.86,17.86 0 0 1 0.31,-0.97a18.8,18.8 0 0 1 2.49,-4.8a17.61,17.61 0 0 1 0.39,-0.52q1.83,-2.34 4.28,-4.1a26.54,26.54 0 0 1 5.22,-2.93a28.83,28.83 0 0 1 11.47,-2.35a31.98,31.98 0 0 1 6.6,0.65q4.16,0.87 7.36,2.95a18.74,18.74 0 0 1 1.86,1.38a19.9,19.9 0 0 0 0.64,-5.02a9.77,9.77 0 0 0 -0.15,-1.74q-0.17,-0.98 -0.57,-1.78a5.39,5.39 0 0 0 -0.4,-0.68a6.09,6.09 0 0 1 3.19,-1.96q1.01,-0.26 2.22,-0.29a12.28,12.28 0 0 1 0.25,0a6.38,6.38 0 0 1 1.43,0.15q1.17,0.27 1.99,1.02a10.37,10.37 0 0 1 1.15,1.15q1.29,1.52 1.29,3.03a11.49,11.49 0 0 1 -0.12,1.71q-0.16,1.04 -0.52,1.9a13.26,13.26 0 0 1 -1.66,2.91a18.53,18.53 0 0 1 -2.99,3.26a22.71,22.71 0 0 1 -1.69,1.32a16.49,16.49 0 0 1 1.75,5.51a21.24,21.24 0 0 1 0.2,2.97q0,4.81 -2.12,8.93a21.64,21.64 0 0 1 -5.69,7.01a26.42,26.42 0 0 1 -13.22,5.58a35.12,35.12 0 0 1 -4.85,0.33a22.22,22.22 0 0 1 -1.19,-0.04q-1.06,-0.05 -2.37,-0.21a8.78,8.78 0 0 0 -0.93,1.08q-0.93,1.29 -0.93,2.54a4.79,4.79 0 0 0 0.11,1.05q0.15,0.68 0.53,1.19a2.75,2.75 0 0 0 0.39,0.42a5.89,5.89 0 0 0 1.22,0.82q0.58,0.29 1.26,0.51a10.11,10.11 0 0 0 0.2,0.06a19.61,19.61 0 0 0 3.21,0.57a24.93,24.93 0 0 0 2.41,0.11zm5.08,9.77l-4.35,0.05q-6.34,0 -10.18,-0.89a20.97,20.97 0 0 1 -0.37,-0.09q-3.94,2.68 -5.45,5.8a9.21,9.21 0 0 0 -0.94,4.06q0,4.71 5.37,7.19a16.73,16.73 0 0 0 0.19,0.09a20.78,20.78 0 0 0 4.62,1.47q2.15,0.44 4.63,0.54a38.62,38.62 0 0 0 1.69,0.04a31.34,31.34 0 0 0 7.63,-0.9a27.68,27.68 0 0 0 3.31,-1.05q6.59,-2.59 6.59,-8.45a6.54,6.54 0 0 0 -3.81,-6.25q-2.84,-1.45 -7.79,-1.59a38.54,38.54 0 0 0 -1.14,-0.02zm-14.92,-28.54a10.93,10.93 0 0 0 3.98,2.56a13.62,13.62 0 0 0 4.33,0.82a15.56,15.56 0 0 0 0.48,0.01a15.99,15.99 0 0 0 3.9,-0.46a14.59,14.59 0 0 0 0.93,-0.27q2.27,-0.73 3.93,-2.15a9.85,9.85 0 0 0 3.33,-5.89a14.68,14.68 0 0 0 0.24,-2.7a19.68,19.68 0 0 0 -0.55,-4.75a14.65,14.65 0 0 0 -2.63,-5.51a11.76,11.76 0 0 0 -8.18,-4.43a17.04,17.04 0 0 0 -1.97,-0.11a15.36,15.36 0 0 0 -4.03,0.49q-4.69,1.28 -6.52,5.87a12.9,12.9 0 0 0 -0.15,0.38a12.65,12.65 0 0 0 -0.55,2.13q-0.19,1.08 -0.25,2.34a25.04,25.04 0 0 0 -0.03,1.2a19.48,19.48 0 0 0 0.28,3.34a15.23,15.23 0 0 0 0.72,2.71a13.79,13.79 0 0 0 1.19,2.45a10.84,10.84 0 0 0 1.55,1.97z" id="svg_1"/>
  </g>
 </g>
</svg>